<?xml version="1.0" encoding="utf-8"?>
<!-- Generator: Adobe Illustrator 16.0.0, SVG Export Plug-In . SVG Version: 6.00 Build 0)  -->
<!DOCTYPE svg PUBLIC "-//W3C//DTD SVG 1.1//EN" "http://www.w3.org/Graphics/SVG/1.1/DTD/svg11.dtd">
<svg version="1.1" id="Layer_1" xmlns="http://www.w3.org/2000/svg" xmlns:xlink="http://www.w3.org/1999/xlink" x="0px" y="0px"
	 width="512px" height="512px" viewBox="0 0 512 512" enable-background="new 0 0 512 512" xml:space="preserve">
<g>
	<polygon fill="#3DB659" points="404.699,393.019 404.699,474.596 187.724,393.019 187.724,311.683 323.363,362.608 
		323.363,362.367 323.363,281.273 323.363,281.032 323.363,199.937 404.699,230.349 404.699,311.683 	"/>
	<polygon fill="#0264A2" points="323.363,281.273 323.363,362.367 187.724,311.683 187.724,230.349 	"/>
	<polygon points="323.363,281.032 323.363,281.273 187.724,230.349 187.724,230.349 	"/>
	<polygon fill="#0D4167" points="323.363,199.937 323.363,281.032 187.724,230.349 187.724,148.769 	"/>
	<polygon fill="#428BCA" points="323.363,118.359 323.363,199.697 187.724,148.769 187.724,230.349 187.724,230.349 
		187.724,311.683 106.387,281.032 106.387,199.697 106.387,118.359 106.387,37.023 	"/>
	<polygon points="323.363,362.367 187.724,311.683 187.724,311.683 	"/>
</g>
</svg>
