<svg version="1.2" xmlns="http://www.w3.org/2000/svg" viewBox="0 0 2115 490" width="2115" height="490">
	<title>logo-issue-tracking</title>
	<style>
		.s0 { fill: #3db659 } 
		.s1 { fill: #0264a2 } 
		.s2 { fill: #0d4167 } 
		.s3 { fill: #428bca } 
		.s4 { fill: #000000 } 
		.s5 { fill: #465a6d } 
		.s6 { fill: #31404e } 
	</style>
	<g id="Layer 1">
		<g id="&lt;Group&gt;">
			<path id="&lt;Path&gt;" class="s0" d="m331.3 398.9v91.1l-241.1-91.1v-91.1l150.7 56.9v-91.1-91.1l90.4 34.1v91.2z"/>
			<path id="&lt;Path&gt;" class="s1" d="m240.9 273.6v91.1l-150.7-56.9v-91z"/>
			<path id="&lt;Path&gt;" class="s2" d="m240.9 182.5v91.1l-150.7-57.1v-90.9l59.8 22.6z"/>
			<path id="&lt;Path&gt;" class="s3" d="m240.9 91.3v91.2l-90.9-34.3-59.8-22.7v0.1 90.9 0.1 0.2 91l-90.4-34.2v-91.1-91.2-91.1z"/>
			<path id="&lt;Path&gt;" class="s4" d="m240.9 273.6l-150.7-56.8v-0.2z"/>
			<path id="&lt;Path&gt;" class="s4" d="m240.9 273.6l-150.7-57v-0.1z"/>
		</g>
		<g id="&lt;Group&gt;">
			<path id="&lt;Path&gt;" class="s5" d="m431 365.4c-2 3.3-4.8 5.9-8.2 7.6q-5.5 2.9-13.3 2.9c-4.8 0.1-9.5-0.8-13.9-2.7-3.9-1.6-7.2-4.2-9.7-7.6-2.5-3.4-3.9-7.4-4.2-11.7h15.4c0.3 2.9 1.6 5.5 3.6 7.5 2.2 2 5.1 3 8.2 2.9q4.5 0 6.9-2.4c1.6-1.7 2.5-3.9 2.4-6.3 0.1-2.1-0.6-4.1-1.9-5.7-1.4-1.5-3.1-2.7-5-3.6q-3-1.3-8.3-3.1-5.7-1.8-11.1-4.5c-2.9-1.6-5.5-3.8-7.4-6.5q-3-4.3-3-11.1 0-9.5 6.7-15 6.8-5.4 17.9-5.4 11.6 0 18.5 5.6c4.5 3.7 7.3 9.1 7.7 15h-15.6c-0.3-2.6-1.5-4.9-3.3-6.6q-2.7-2.5-7.4-2.5c-2.4-0.1-4.7 0.7-6.5 2.1q-2.5 2.1-2.5 6.2c0 2 0.6 3.9 1.9 5.3 1.4 1.5 3 2.8 4.9 3.6q3.9 1.7 8 3 5.9 2 11.4 4.6c3 1.6 5.6 3.8 7.5 6.6q3.1 4.4 3.1 11.4c0 3.7-1 7.2-2.8 10.4z"/>
			<path id="&lt;Compound Path&gt;" fill-rule="evenodd" class="s5" d="m479.3 320.2c3.4 2.2 5.9 5.4 7.3 9.3v-12h14.6v57.7h-14.6v-12.2c-1.3 3.9-3.9 7.1-7.3 9.3-3.6 2.5-7.9 3.7-12.4 3.6-4.6 0-9.1-1.2-13-3.6-3.9-2.5-7-6-9-10.3-2.2-4.8-3.3-10.3-3.2-15.7-0.1-5.4 1-10.9 3.2-15.7 2-4.3 5.1-7.8 9-10.3 3.9-2.4 8.4-3.6 13-3.6 4.5-0.1 8.7 1.1 12.4 3.5zm-18.8 13.8q-4.1 4.5-4.1 12.2 0 7.9 4.1 12.4 4.1 4.3 11 4.3c4.1 0.1 8-1.5 10.9-4.4q4.2-4.6 4.2-12.2 0-7.6-4.2-12.2c-2.9-3-6.8-4.6-10.9-4.5q-6.9 0-11 4.4z"/>
			<path id="&lt;Path&gt;" class="s5" d="m564.2 323.2q5.9 6.6 5.9 18.4v33.6h-14.5v-31.9q0-6.9-3.5-10.6-3.5-3.8-9.6-3.8-6.1 0-9.8 4-3.7 4-3.7 11.6v30.7h-14.7v-57.7h14.6v11.6c1.5-3.9 4.1-7 7.5-9.1 3.6-2.3 7.7-3.5 12-3.4q9.9 0 15.8 6.6z"/>
			<path id="&lt;Compound Path&gt;" fill-rule="evenodd" class="s5" d="m617.6 320.2c3.5 2.2 6 5.4 7.4 9.3v-12h14.4v57.9c0.1 4.9-1 9.8-3.1 14.3-2.1 4.3-5.3 7.7-9.4 10q-6.2 3.7-15.1 3.7-12.4 0-20-5.9c-5.1-3.9-8.5-9.8-9.3-16.2h14.4c0.7 2.9 2.4 5.3 4.7 6.9q3.5 2.4 9.1 2.4 6.4 0 10.4-3.7 3.9-3.9 3.9-11.5v-12.4c-1.4 3.9-3.9 7.1-7.4 9.3-3.7 2.5-8 3.7-12.3 3.6-4.6 0-9.1-1.2-13-3.6-4-2.5-7.2-6-9.1-10.3-2.3-4.8-3.4-10.3-3.3-15.7-0.1-5.4 1-10.9 3.3-15.7 1.9-4.3 5.1-7.8 9.1-10.3 3.9-2.4 8.4-3.6 13-3.6 4.3-0.1 8.6 1.1 12.3 3.5zm-18.7 13.8q-4.1 4.5-4.1 12.2 0 7.9 4.1 12.4 4.1 4.3 10.9 4.3c4 0.1 8-1.5 10.9-4.4q4.3-4.6 4.3-12.2 0-7.6-4.3-12.2c-2.9-3-6.9-4.6-10.9-4.5q-6.8 0-10.9 4.4z"/>
			<path id="&lt;Path&gt;" class="s5" d="m696.8 322.8q7.3 6.1 9.2 16.5h-15.3c-0.5-3-2-5.5-4.2-7.3-2.4-1.8-5.4-2.7-8.5-2.6-3.7-0.1-7.2 1.5-9.6 4.3q-3.9 4.3-3.9 12.6 0 8.3 3.9 12.7c2.4 2.7 5.9 4.3 9.6 4.2 3.1 0.1 6.1-0.8 8.5-2.6 2.2-1.8 3.7-4.3 4.2-7.2h15.3q-1.9 10.3-9.2 16.4-7.3 6.1-18.5 6.1c-5.2 0.1-10.3-1.2-14.8-3.7-4.3-2.3-7.8-5.8-10.1-10.2-2.5-4.8-3.7-10.2-3.6-15.7-0.1-5.5 1.1-10.9 3.6-15.7 2.3-4.4 5.8-8 10.1-10.3 4.5-2.5 9.6-3.7 14.8-3.6q11.1 0 18.5 6.1z"/>
			<path id="&lt;Path&gt;" class="s5" d="m766.2 323.2q5.9 6.6 5.9 18.4v33.6h-14.5v-31.9q0-6.9-3.5-10.6-3.5-3.8-9.5-3.8-6.3 0-10 4-3.7 4-3.7 11.6v30.7h-14.5v-77.1h14.5v31c1.4-3.9 4-7 7.4-9.1 3.7-2.3 7.9-3.4 12.1-3.4q9.9 0 15.8 6.6z"/>
			<path id="&lt;Compound Path&gt;" fill-rule="evenodd" class="s5" d="m819.7 320.2c3.3 2.2 5.9 5.4 7.3 9.3v-12h14.5v57.7h-14.5v-12.2c-1.4 3.9-4 7.1-7.3 9.3-3.7 2.5-8 3.7-12.4 3.6-4.5 0-9.1-1.2-13-3.6-4-2.4-7.1-6-9-10.3-2.3-4.8-3.4-10.3-3.3-15.7-0.1-5.4 1-10.9 3.3-15.7 1.9-4.3 5.1-7.8 9-10.3 3.9-2.4 8.5-3.6 13-3.6 4.4-0.1 8.7 1.1 12.4 3.5zm-18.8 13.8q-4.2 4.5-4.2 12.2 0 7.9 4.2 12.4 4.2 4.3 10.9 4.3c4.1 0.2 8.1-1.5 10.9-4.4q4.3-4.6 4.3-12.2 0-7.6-4.3-12.2c-2.8-3-6.8-4.6-10.9-4.5q-6.7 0-10.9 4.4z"/>
			<path id="&lt;Compound Path&gt;" class="s5" d="m855.5 295.1c3.8-2.9 9.2-2.9 13 0 1.7 1.5 2.6 3.6 2.5 5.9 0.1 2.1-0.8 4.2-2.5 5.6-3.8 2.9-9.2 2.9-13 0-1.7-1.4-2.6-3.5-2.5-5.6-0.1-2.3 0.8-4.4 2.5-5.9zm13.8 22.3v57.7h-14.7v-57.6z"/>
		</g>
		<g id="&lt;Group&gt;">
			<path id="&lt;Path&gt;" class="s5" d="m960.8 308.8c5.8 4.4 9.9 10.7 11.5 17.7h-12.4c-1.6-3.8-4.3-7.1-7.8-9.5-4-2.4-8.5-3.6-13-3.5-4.4-0.1-8.6 1-12.3 3.2-3.6 2.2-6.7 5.4-8.5 9.2-2.2 4.4-3.2 9.2-3.1 14.1-0.1 5 0.9 10 3.1 14.5 1.9 4 5.1 7.2 8.9 9.3 4 2.3 8.5 3.4 13.1 3.3 5.7 0.1 11.3-2 15.7-5.8 4.5-4 7.3-9.6 7.9-15.7h-27v-8.8h36.9v11.5c-0.8 5.3-2.7 10.4-5.7 14.8-3.1 4.5-7.2 8.1-12 10.6-5.3 2.8-11.1 4.1-17 4-6.6 0.2-13.1-1.5-19-4.8-5.4-3.1-9.8-7.8-12.6-13.3-6-12.4-6-26.8 0-39.1 2.8-5.6 7.2-10.2 12.6-13.4 5.8-3.2 12.3-4.8 18.9-4.7 7.7-0.3 15.5 2 21.8 6.4z"/>
			<path id="&lt;Path&gt;" class="s5" d="m1005.9 321.6c3.8-2.2 8.2-3.4 12.6-3.3v13h-3.6c-4.5-0.2-9 1.1-12.6 3.8-3.1 2.6-4.7 6.8-4.7 12.7v29.2h-11.7v-57.8h11.7v11.5c1.9-3.8 4.8-7 8.3-9.1z"/>
			<path id="&lt;Compound Path&gt;" fill-rule="evenodd" class="s5" d="m1068.4 322.2c4.5 2.2 8.1 5.7 10.5 10.1 5 10 5 21.6 0 31.5-2.4 4.4-6 8-10.5 10.2-9.4 4.8-20.4 4.8-29.9 0-4.4-2.3-8-5.8-10.4-10.3-5-9.8-5-21.6 0-31.4 2.5-4.4 6.1-7.9 10.4-10.2 9.5-4.8 20.5-4.8 29.9 0zm-23.3 8.9c-2.7 1.5-4.9 3.7-6.3 6.4-3.1 6.7-3.1 14.6 0 21.4 1.4 2.6 3.7 4.8 6.3 6.3 5.3 2.9 11.6 2.9 16.8 0 2.6-1.5 4.8-3.7 6.2-6.3 3.1-6.8 3.1-14.7 0-21.4-1.4-2.7-3.5-4.9-6.2-6.4-5.3-2.9-11.5-2.9-16.8 0z"/>
			<path id="&lt;Path&gt;" class="s5" d="m1146.9 319.3v57.8h-11.9v-12.7c-1.4 4.2-4.1 7.6-7.7 9.9-3.8 2.5-8.1 3.7-12.6 3.6-6 0.3-11.8-2.1-16-6.5q-6-6.6-6-18.6v-33.5h11.8v32.2q0 7.9 4 12.1c2.8 3 6.7 4.5 10.8 4.3 4.2 0.2 8.3-1.5 11.3-4.6q4.3-4.6 4.3-13.4v-30.6z"/>
			<path id="&lt;Compound Path&gt;" fill-rule="evenodd" class="s5" d="m1207.4 322.2c3.9 2.4 7.1 5.9 9.1 10.1 4.4 10.1 4.4 21.5 0 31.5-2 4.3-5.2 7.8-9.1 10.2-4.1 2.5-8.7 3.7-13.4 3.7-4.8 0.1-9.4-1.2-13.3-4-3.6-2.4-6.3-6-7.7-10.2v40.9h-11.9v-85.1h11.9v13.3c1.4-4.1 4.1-7.7 7.7-10.1 3.9-2.7 8.5-4.1 13.3-4 4.7-0.1 9.3 1.3 13.4 3.7zm-26 9.2c-2.7 1.6-4.8 3.9-6.2 6.8-3.1 6.2-3.1 13.6 0 20 1.4 2.7 3.6 5 6.2 6.6 2.7 1.7 5.8 2.5 8.9 2.4 4.9 0.2 9.5-1.6 12.8-5.1q4.7-5.1 4.7-14c0.3-5.1-1.4-10.1-4.7-14-3.3-3.4-7.9-5.2-12.8-5-3.1-0.1-6.2 0.7-8.9 2.3z"/>
		</g>
		<path id="UPDATE COST" class="s6" aria-label="UPDATE COST"  d="m449.8 273.3q-33.8 0-51-17.8-17.2-18-17.2-48.2v-92.8h33.6v93.2q0 16.9 9.2 25.8 9.3 8.9 25.4 8.9 15.9 0 25-8.9 9.2-8.9 9.2-25.8v-93.2h33.6v92.8q0 30.2-17 48.2-17 17.8-50.8 17.8zm89.8-3.3v-155.5h64.9q26.3 0 42 14 15.7 13.8 15.7 38.5 0 25.4-15.7 38.9-15.5 13.6-42 13.6h-31.3v50.5zm33.5-78.7h26.5q28.5 0 28.5-24.3 0-13.5-7.7-18.9-7.5-5.3-20.8-5.3h-26.5zm104.5 78.7v-155.4h53.6q25.2 0 43.9 9.3 18.8 9.3 28.9 26.7 10.2 17.3 10.2 40.9 0 38.7-22.5 58.7-22.3 19.8-62.3 19.8zm33.6-28.2h20.1q23.6 0 36.2-13.4 12.5-13.3 12.5-36.9 0-14-5.5-25.1-5.5-11.1-16.1-17.4-10.6-6.2-24.9-6.2h-22.3zm102.8 28.2l61.8-155.4h32.9l61.6 155.4h-34.2l-13.2-33.8h-61.2l-13.2 33.8zm56.3-60.7h43.7l-21.9-59.1zm127.8 60.7v-127.2h-45v-28.3h123.6v28.3h-45v127.2zm93.3 0v-155.5h107.1v28.3h-73.5v36h54.1v27.1h-54.1v35.8h73.5v28.3zm279.7 3.3q-24.8 0-43.8-9.8-18.9-10-29.3-28.2-10.4-18.2-10.4-42.9 0-24.7 10.4-43 10.4-18.4 29.3-28.2 19-10 43.8-10 32 0 53.4 14.7v32q-9.7-8.2-22.3-11.8-12.4-3.8-28.3-3.8-24 0-38.2 13.6-13.9 13.3-13.9 36.5 0 23.3 14.2 36.9 14.1 13.3 37.9 13.3 16.4 0 28.9-3.8 12.6-4 23.4-12.6v32q-20.3 15.1-55.1 15.1zm146.5 0q-23.2 0-42.1-10.2-18.8-10.2-29.6-28.5-10.8-18.4-10.8-42.2 0-23.8 10.8-42.3 10.8-18.5 29.6-28.7 18.9-10.2 42.1-10.2 23.2 0 41.7 10.2 18.8 10.2 29.6 28.7 10.8 18.5 10.8 42.3 0 23.8-10.8 42.2-10.8 18.3-29.6 28.5-18.5 10.2-41.7 10.2zm0-31.1q13.3 0 24.1-6 11-6.2 17.4-17.4 6.4-11.3 6.4-26.4 0-14.9-6.4-26.1-6.2-11.3-17.2-17.3-10.8-6.2-24.3-6.2-13.7 0-24.7 6.2-10.8 6-17.2 17.3-6.4 11.2-6.4 26.1 0 15.1 6.4 26.4 6.4 11.2 17.4 17.4 11.1 6 24.5 6zm141.5 31.1q-14.1 0-28-2.6-13.9-2.7-22.8-7.2v-29.8q11.7 5.8 24.3 8.7 12.6 2.9 24.1 2.9 12.8 0 19.4-4.5 6.6-4.4 6.6-12.4 0-5.8-3.3-9.8-3.3-4-9.7-7.1-6.2-3.3-19.2-8.7-21.6-8.9-31.3-19.8-9.8-11.1-9.8-27.3 0-13.2 7.1-23.2 7.1-10.2 19.9-15.8 12.8-5.5 29.5-5.5 13.7 0 24.3 2.2 10.6 2.2 20.8 6.9v28.9q-19.4-9.8-38.9-9.8-12.3 0-19.4 4.5-7.1 4.2-7.1 12.2 0 5.8 3.4 9.6 3.3 3.8 9.2 6.6 6 2.9 19.4 8.5 15.7 6.7 24.5 12.9 8.9 6 13.1 14.5 4.2 8.2 4.2 20.4 0 21.1-15.3 32.9-15 11.8-45 11.8zm110.4-3.3v-127.2h-45.1v-28.3h123.7v28.3h-45.1v127.2z"/>
	</g>
</svg>