<?xml version="1.0" encoding="UTF-8"?>
<svg xmlns="http://www.w3.org/2000/svg" xmlns:xlink="http://www.w3.org/1999/xlink" width="171px" height="46px" viewBox="0 0 173 46" version="1.1">
<g id="surface1">
<path style=" stroke:none;fill-rule:nonzero;fill:rgb(23.921569%,71.372549%,34.901961%);fill-opacity:1;" d="M 31.058594 37.4375 L 31.058594 45.988281 L 8.472656 37.4375 L 8.472656 28.886719 L 22.585938 34.226562 L 22.585938 17.125 L 31.058594 20.324219 Z M 31.058594 37.4375 "/>
<path style=" stroke:none;fill-rule:nonzero;fill:rgb(0.784314%,39.215686%,63.529412%);fill-opacity:1;" d="M 22.585938 25.675781 L 22.585938 34.226562 L 8.472656 28.886719 L 8.472656 20.34375 Z M 22.585938 25.675781 "/>
<path style=" stroke:none;fill-rule:nonzero;fill:rgb(5.098039%,25.490196%,40.392157%);fill-opacity:1;" d="M 22.585938 17.125 L 22.585938 25.675781 L 8.472656 20.316406 L 8.472656 11.78125 L 14.070312 13.902344 Z M 22.585938 17.125 "/>
<path style=" stroke:none;fill-rule:nonzero;fill:rgb(25.882353%,54.509804%,79.215686%);fill-opacity:1;" d="M 22.585938 8.5625 L 22.585938 17.125 L 14.070312 13.902344 L 8.472656 11.773438 L 8.472656 28.886719 L 0 25.675781 L 0 0.0117188 Z M 22.585938 8.5625 "/>
<path style=" stroke:none;fill-rule:nonzero;fill:rgb(0%,0%,0%);fill-opacity:1;" d="M 22.585938 25.675781 L 8.472656 20.34375 L 8.472656 20.324219 Z M 22.585938 25.675781 "/>
<path style=" stroke:none;fill-rule:nonzero;fill:rgb(0%,0%,0%);fill-opacity:1;" d="M 22.585938 25.675781 L 8.472656 20.324219 L 8.472656 20.316406 Z M 22.585938 25.675781 "/>
<path style=" stroke:none;fill-rule:nonzero;fill:rgb(100%,100%,100%);fill-opacity:1;" d="M 41.972656 26.210938 C 39.863281 26.210938 38.273438 25.652344 37.199219 24.539062 C 36.125 23.414062 35.589844 21.90625 35.589844 20.015625 L 35.589844 11.304688 L 38.722656 11.304688 L 38.722656 20.050781 C 38.722656 21.109375 39.015625 21.917969 39.59375 22.472656 C 40.175781 23.03125 40.96875 23.308594 41.972656 23.308594 C 42.964844 23.308594 43.746094 23.03125 44.3125 22.472656 C 44.894531 21.917969 45.183594 21.109375 45.183594 20.050781 L 45.183594 11.304688 L 48.328125 11.304688 L 48.328125 20.015625 C 48.328125 21.90625 47.792969 23.414062 46.726562 24.539062 C 45.667969 25.652344 44.082031 26.210938 41.972656 26.210938 Z M 50.398438 25.902344 L 50.398438 11.304688 L 56.472656 11.304688 C 58.113281 11.304688 59.421875 11.742188 60.402344 12.617188 C 61.382812 13.480469 61.871094 14.6875 61.871094 16.230469 C 61.871094 17.820312 61.382812 19.039062 60.402344 19.882812 C 59.4375 20.734375 58.125 21.160156 56.472656 21.160156 L 53.53125 21.160156 L 53.53125 25.902344 Z M 53.542969 18.511719 L 56.023438 18.511719 C 57.800781 18.511719 58.691406 17.753906 58.691406 16.230469 C 58.691406 15.386719 58.449219 14.796875 57.96875 14.457031 C 57.5 14.125 56.851562 13.960938 56.023438 13.960938 L 53.542969 13.960938 Z M 63.324219 25.902344 L 63.324219 11.3125 L 68.351562 11.3125 C 69.921875 11.3125 71.296875 11.605469 72.46875 12.1875 C 73.640625 12.769531 74.542969 13.605469 75.175781 14.691406 C 75.808594 15.773438 76.128906 17.054688 76.128906 18.53125 C 76.128906 20.953125 75.421875 22.789062 74.011719 24.042969 C 72.621094 25.28125 70.675781 25.902344 68.179688 25.902344 Z M 66.46875 23.253906 L 68.351562 23.253906 C 69.828125 23.253906 70.960938 22.835938 71.746094 21.996094 C 72.535156 21.164062 72.925781 20.007812 72.925781 18.53125 C 72.925781 17.65625 72.753906 16.871094 72.402344 16.175781 C 72.058594 15.480469 71.558594 14.9375 70.894531 14.542969 C 70.234375 14.15625 69.453125 13.960938 68.554688 13.960938 L 66.46875 13.960938 Z M 76.109375 25.902344 L 81.894531 11.3125 L 84.984375 11.3125 L 90.75 25.902344 L 87.546875 25.902344 L 86.304688 22.726562 L 80.574219 22.726562 L 79.328125 25.902344 Z M 81.390625 20.203125 L 85.480469 20.203125 L 83.4375 14.65625 Z M 93.359375 25.902344 L 93.359375 13.960938 L 89.140625 13.960938 L 89.140625 11.304688 L 100.71875 11.304688 L 100.71875 13.960938 L 96.507812 13.960938 L 96.507812 25.902344 Z M 102.105469 25.902344 L 102.105469 11.304688 L 112.136719 11.304688 L 112.136719 13.960938 L 105.25 13.960938 L 105.25 17.339844 L 110.3125 17.339844 L 110.3125 19.882812 L 105.25 19.882812 L 105.25 23.242188 L 112.136719 23.242188 L 112.136719 25.902344 Z M 128.304688 26.210938 C 126.761719 26.210938 125.398438 25.902344 124.214844 25.289062 C 123.027344 24.664062 122.109375 23.78125 121.460938 22.644531 C 120.8125 21.503906 120.488281 20.160156 120.488281 18.617188 C 120.488281 17.070312 120.8125 15.726562 121.460938 14.582031 C 122.109375 13.429688 123.027344 12.546875 124.214844 11.933594 C 125.398438 11.308594 126.761719 10.996094 128.304688 10.996094 C 130.308594 10.996094 131.976562 11.453125 133.3125 12.375 L 133.3125 15.378906 C 132.707031 14.863281 132.011719 14.496094 131.222656 14.269531 C 130.449219 14.03125 129.566406 13.914062 128.574219 13.914062 C 127.070312 13.914062 125.878906 14.339844 125 15.191406 C 124.125 16.023438 123.6875 17.164062 123.6875 18.617188 C 123.6875 20.074219 124.132812 21.230469 125.019531 22.082031 C 125.898438 22.914062 127.082031 23.328125 128.574219 23.328125 C 129.59375 23.328125 130.496094 23.210938 131.28125 22.972656 C 132.066406 22.722656 132.796875 22.328125 133.472656 21.789062 L 133.472656 24.792969 C 132.203125 25.738281 130.480469 26.210938 128.304688 26.210938 Z M 142.035156 26.210938 C 140.585938 26.210938 139.269531 25.890625 138.085938 25.253906 C 136.914062 24.613281 135.988281 23.722656 135.316406 22.578125 C 134.640625 21.425781 134.304688 20.105469 134.304688 18.617188 C 134.304688 17.128906 134.640625 15.804688 135.316406 14.644531 C 135.988281 13.488281 136.914062 12.589844 138.085938 11.953125 C 139.269531 11.3125 140.585938 10.996094 142.035156 10.996094 C 143.484375 10.996094 144.789062 11.3125 145.949219 11.953125 C 147.121094 12.589844 148.046875 13.488281 148.71875 14.644531 C 149.394531 15.804688 149.730469 17.128906 149.730469 18.617188 C 149.730469 20.105469 149.394531 21.425781 148.71875 22.578125 C 148.046875 23.722656 147.121094 24.613281 145.949219 25.253906 C 144.789062 25.890625 143.484375 26.210938 142.035156 26.210938 Z M 142.035156 23.289062 C 142.867188 23.289062 143.617188 23.101562 144.292969 22.726562 C 144.976562 22.339844 145.523438 21.796875 145.929688 21.09375 C 146.328125 20.386719 146.527344 19.5625 146.527344 18.617188 C 146.527344 17.683594 146.328125 16.867188 145.929688 16.167969 C 145.542969 15.460938 145.003906 14.917969 144.308594 14.542969 C 143.636719 14.15625 142.878906 13.960938 142.035156 13.960938 C 141.179688 13.960938 140.410156 14.15625 139.722656 14.542969 C 139.042969 14.917969 138.503906 15.460938 138.105469 16.167969 C 137.703125 16.867188 137.503906 17.683594 137.503906 18.617188 C 137.503906 19.5625 137.703125 20.386719 138.105469 21.09375 C 138.503906 21.796875 139.050781 22.339844 139.742188 22.726562 C 140.429688 23.101562 141.191406 23.289062 142.035156 23.289062 Z M 155.289062 26.210938 C 154.410156 26.210938 153.535156 26.128906 152.667969 25.964844 C 151.800781 25.796875 151.089844 25.570312 150.535156 25.289062 L 150.535156 22.492188 C 151.265625 22.855469 152.023438 23.128906 152.808594 23.308594 C 153.597656 23.492188 154.347656 23.582031 155.066406 23.582031 C 155.863281 23.582031 156.472656 23.441406 156.890625 23.160156 C 157.300781 22.882812 157.507812 22.496094 157.507812 21.996094 C 157.507812 21.632812 157.40625 21.324219 157.199219 21.074219 C 156.992188 20.824219 156.6875 20.601562 156.28125 20.410156 C 155.902344 20.203125 155.300781 19.929688 154.484375 19.59375 C 153.136719 19.035156 152.160156 18.417969 151.554688 17.734375 C 150.945312 17.039062 150.636719 16.183594 150.636719 15.171875 C 150.636719 14.34375 150.859375 13.621094 151.300781 12.992188 C 151.746094 12.355469 152.367188 11.859375 153.164062 11.511719 C 153.964844 11.167969 154.886719 10.996094 155.9375 10.996094 C 156.789062 10.996094 157.550781 11.0625 158.210938 11.199219 C 158.871094 11.339844 159.519531 11.554688 160.15625 11.847656 L 160.15625 14.5625 C 158.941406 13.949219 157.726562 13.640625 156.515625 13.640625 C 155.742188 13.640625 155.132812 13.78125 154.691406 14.0625 C 154.253906 14.328125 154.035156 14.707031 154.035156 15.210938 C 154.035156 15.570312 154.140625 15.871094 154.34375 16.109375 C 154.550781 16.347656 154.839844 16.554688 155.214844 16.730469 C 155.582031 16.910156 156.1875 17.175781 157.03125 17.527344 C 158.011719 17.945312 158.773438 18.351562 159.324219 18.738281 C 159.878906 19.113281 160.289062 19.566406 160.550781 20.097656 C 160.8125 20.613281 160.945312 21.25 160.945312 22.015625 C 160.945312 23.335938 160.464844 24.363281 159.511719 25.101562 C 158.574219 25.839844 157.167969 26.210938 155.289062 26.210938 Z M 165.632812 25.902344 L 165.632812 13.960938 L 161.410156 13.960938 L 161.410156 11.304688 L 173 11.304688 L 173 13.960938 L 168.777344 13.960938 L 168.777344 25.902344 Z M 165.632812 25.902344 "/>
<path style=" stroke:none;fill-rule:nonzero;fill:rgb(94.901961%,94.901961%,94.901961%);fill-opacity:1;" d="M 40.410156 34.367188 C 40.222656 34.675781 39.949219 34.921875 39.632812 35.082031 C 39.289062 35.261719 38.875 35.351562 38.386719 35.351562 C 37.9375 35.363281 37.496094 35.277344 37.085938 35.097656 C 36.722656 34.949219 36.414062 34.707031 36.167969 34.386719 C 35.945312 34.066406 35.804688 33.691406 35.777344 33.296875 L 37.226562 33.296875 C 37.253906 33.558594 37.375 33.804688 37.5625 33.992188 C 37.769531 34.179688 38.039062 34.28125 38.320312 34.273438 C 38.613281 34.273438 38.828125 34.1875 38.976562 34.039062 C 39.125 33.878906 39.210938 33.671875 39.203125 33.449219 C 39.210938 33.25 39.144531 33.0625 39.023438 32.921875 C 38.894531 32.773438 38.734375 32.660156 38.554688 32.582031 C 38.367188 32.496094 38.109375 32.394531 37.777344 32.285156 C 37.421875 32.171875 37.078125 32.03125 36.738281 31.859375 C 36.460938 31.71875 36.226562 31.503906 36.046875 31.25 C 35.855469 30.988281 35.757812 30.640625 35.757812 30.210938 C 35.757812 29.613281 35.96875 29.144531 36.394531 28.800781 C 36.816406 28.464844 37.375 28.292969 38.070312 28.292969 C 38.792969 28.292969 39.371094 28.46875 39.800781 28.820312 C 40.222656 29.167969 40.492188 29.675781 40.53125 30.21875 L 39.0625 30.21875 C 39.03125 29.992188 38.921875 29.777344 38.753906 29.609375 C 38.582031 29.453125 38.351562 29.375 38.058594 29.375 C 37.84375 29.363281 37.628906 29.429688 37.453125 29.570312 C 37.296875 29.707031 37.21875 29.902344 37.226562 30.152344 C 37.21875 30.339844 37.28125 30.519531 37.40625 30.660156 C 37.527344 30.800781 37.683594 30.914062 37.855469 30.988281 C 38.097656 31.09375 38.347656 31.1875 38.601562 31.269531 C 38.972656 31.394531 39.328125 31.542969 39.679688 31.710938 C 39.960938 31.851562 40.195312 32.058594 40.382812 32.320312 C 40.574219 32.597656 40.671875 32.957031 40.671875 33.402344 C 40.671875 33.738281 40.578125 34.078125 40.410156 34.367188 Z M 40.410156 34.367188 "/>
<path style=" stroke:none;fill-rule:evenodd;fill:rgb(94.901961%,94.901961%,94.901961%);fill-opacity:1;" d="M 44.929688 30.125 C 45.25 30.332031 45.492188 30.640625 45.621094 30.996094 L 45.621094 29.871094 L 46.980469 29.871094 L 46.980469 35.277344 L 45.621094 35.277344 L 45.621094 34.152344 C 45.492188 34.507812 45.25 34.808594 44.941406 35.023438 C 44.59375 35.25 44.179688 35.363281 43.769531 35.351562 C 43.347656 35.351562 42.917969 35.242188 42.550781 35.015625 C 42.1875 34.789062 41.886719 34.453125 41.710938 34.058594 C 41.496094 33.589844 41.390625 33.089844 41.402344 32.574219 C 41.390625 32.066406 41.496094 31.5625 41.710938 31.101562 C 41.886719 30.695312 42.1875 30.367188 42.550781 30.132812 C 42.925781 29.910156 43.347656 29.796875 43.769531 29.804688 C 44.179688 29.785156 44.582031 29.898438 44.929688 30.125 Z M 43.171875 31.417969 C 42.914062 31.703125 42.785156 32.085938 42.785156 32.574219 C 42.785156 33.0625 42.914062 33.449219 43.171875 33.730469 C 43.433594 34.003906 43.777344 34.140625 44.199219 34.140625 C 44.582031 34.152344 44.949219 34 45.21875 33.71875 C 45.488281 33.433594 45.621094 33.050781 45.621094 32.574219 C 45.621094 32.097656 45.488281 31.71875 45.21875 31.429688 C 44.949219 31.148438 44.582031 30.988281 44.199219 31.007812 C 43.777344 31.007812 43.433594 31.144531 43.171875 31.417969 Z M 43.171875 31.417969 "/>
<path style=" stroke:none;fill-rule:nonzero;fill:rgb(94.901961%,94.901961%,94.901961%);fill-opacity:1;" d="M 52.886719 30.40625 C 53.253906 30.820312 53.4375 31.394531 53.4375 32.132812 L 53.4375 35.277344 L 52.089844 35.277344 L 52.089844 32.292969 C 52.089844 31.867188 51.980469 31.535156 51.761719 31.296875 C 51.539062 31.058594 51.234375 30.941406 50.855469 30.941406 C 50.46875 30.941406 50.160156 31.066406 49.929688 31.316406 C 49.699219 31.574219 49.582031 31.9375 49.582031 32.414062 L 49.582031 35.289062 L 48.214844 35.289062 L 48.214844 29.871094 L 49.582031 29.871094 L 49.582031 30.949219 C 49.714844 30.601562 49.957031 30.304688 50.285156 30.097656 C 50.621094 29.890625 51.003906 29.785156 51.40625 29.796875 C 52.027344 29.796875 52.519531 30 52.886719 30.40625 Z M 52.886719 30.40625 "/>
<path style=" stroke:none;fill-rule:evenodd;fill:rgb(94.901961%,94.901961%,94.901961%);fill-opacity:1;" d="M 57.902344 30.125 C 58.222656 30.332031 58.457031 30.640625 58.585938 30.996094 L 58.585938 29.871094 L 59.945312 29.871094 L 59.945312 35.304688 C 59.953125 35.765625 59.851562 36.234375 59.644531 36.648438 C 59.457031 37.050781 59.148438 37.378906 58.765625 37.597656 C 58.378906 37.820312 57.90625 37.933594 57.351562 37.933594 C 56.578125 37.933594 55.953125 37.75 55.480469 37.378906 C 55.003906 37.015625 54.683594 36.46875 54.609375 35.871094 L 55.949219 35.871094 C 56.023438 36.132812 56.179688 36.355469 56.398438 36.507812 C 56.613281 36.664062 56.902344 36.742188 57.257812 36.742188 C 57.65625 36.742188 57.980469 36.625 58.222656 36.386719 C 58.464844 36.148438 58.585938 35.789062 58.585938 35.304688 L 58.585938 34.152344 C 58.457031 34.507812 58.222656 34.808594 57.902344 35.023438 C 57.558594 35.25 57.15625 35.363281 56.742188 35.351562 C 56.3125 35.351562 55.890625 35.242188 55.515625 35.015625 C 55.152344 34.789062 54.863281 34.453125 54.675781 34.058594 C 54.460938 33.589844 54.355469 33.082031 54.367188 32.574219 C 54.355469 32.066406 54.460938 31.5625 54.675781 31.101562 C 54.851562 30.695312 55.152344 30.367188 55.515625 30.132812 C 55.890625 29.910156 56.3125 29.796875 56.742188 29.804688 C 57.144531 29.785156 57.558594 29.898438 57.902344 30.125 Z M 56.144531 31.417969 C 55.882812 31.703125 55.75 32.085938 55.75 32.574219 C 55.75 33.0625 55.882812 33.449219 56.144531 33.730469 C 56.398438 34.003906 56.738281 34.140625 57.164062 34.140625 C 57.546875 34.152344 57.921875 34 58.183594 33.71875 C 58.453125 33.433594 58.585938 33.050781 58.585938 32.574219 C 58.585938 32.097656 58.453125 31.71875 58.183594 31.429688 C 57.921875 31.148438 57.546875 30.988281 57.164062 31.007812 C 56.738281 31.007812 56.398438 31.144531 56.144531 31.417969 Z M 56.144531 31.417969 "/>
<path style=" stroke:none;fill-rule:nonzero;fill:rgb(94.901961%,94.901961%,94.901961%);fill-opacity:1;" d="M 65.316406 30.367188 C 65.777344 30.742188 66.070312 31.257812 66.1875 31.90625 L 64.746094 31.90625 C 64.699219 31.644531 64.558594 31.402344 64.351562 31.230469 C 64.128906 31.0625 63.847656 30.96875 63.566406 30.988281 C 63.21875 30.980469 62.882812 31.128906 62.660156 31.390625 C 62.414062 31.660156 62.292969 32.054688 62.292969 32.574219 C 62.292969 33.09375 62.414062 33.492188 62.660156 33.765625 C 62.882812 34.03125 63.21875 34.179688 63.566406 34.171875 C 63.847656 34.179688 64.128906 34.09375 64.351562 33.917969 C 64.558594 33.746094 64.699219 33.503906 64.746094 33.242188 L 66.1875 33.242188 C 66.070312 33.890625 65.777344 34.40625 65.316406 34.78125 C 64.863281 35.160156 64.289062 35.351562 63.59375 35.351562 C 63.109375 35.363281 62.621094 35.242188 62.199219 35.015625 C 61.796875 34.789062 61.460938 34.460938 61.246094 34.046875 C 61.011719 33.597656 60.898438 33.089844 60.910156 32.574219 C 60.898438 32.058594 61.011719 31.550781 61.246094 31.101562 C 61.460938 30.6875 61.796875 30.351562 62.199219 30.132812 C 62.628906 29.910156 63.109375 29.796875 63.59375 29.804688 C 64.28125 29.804688 64.855469 29.992188 65.316406 30.367188 Z M 65.316406 30.367188 "/>
<path style=" stroke:none;fill-rule:nonzero;fill:rgb(94.901961%,94.901961%,94.901961%);fill-opacity:1;" d="M 71.824219 30.40625 C 72.191406 30.820312 72.375 31.394531 72.375 32.132812 L 72.375 35.277344 L 71.027344 35.277344 L 71.027344 32.292969 C 71.027344 31.867188 70.914062 31.535156 70.691406 31.296875 C 70.472656 31.058594 70.171875 30.941406 69.792969 30.941406 C 69.40625 30.941406 69.097656 31.066406 68.863281 31.316406 C 68.632812 31.574219 68.519531 31.9375 68.519531 32.414062 L 68.519531 35.289062 L 67.152344 35.289062 L 67.152344 28.050781 L 68.519531 28.050781 L 68.519531 30.949219 C 68.648438 30.601562 68.902344 30.304688 69.21875 30.097656 C 69.558594 29.890625 69.949219 29.785156 70.34375 29.796875 C 70.96875 29.796875 71.460938 30 71.824219 30.40625 Z M 71.824219 30.40625 "/>
<path style=" stroke:none;fill-rule:evenodd;fill:rgb(94.901961%,94.901961%,94.901961%);fill-opacity:1;" d="M 76.839844 30.125 C 77.160156 30.332031 77.402344 30.640625 77.523438 30.996094 L 77.523438 29.871094 L 78.878906 29.871094 L 78.878906 35.277344 L 77.523438 35.277344 L 77.523438 34.152344 C 77.390625 34.507812 77.160156 34.808594 76.839844 35.023438 C 76.492188 35.25 76.089844 35.363281 75.679688 35.351562 C 75.25 35.351562 74.828125 35.242188 74.460938 35.015625 C 74.089844 34.789062 73.796875 34.453125 73.609375 34.058594 C 73.40625 33.589844 73.300781 33.089844 73.3125 32.574219 C 73.300781 32.066406 73.40625 31.5625 73.609375 31.101562 C 73.796875 30.695312 74.089844 30.367188 74.460938 30.132812 C 74.828125 29.910156 75.25 29.796875 75.679688 29.804688 C 76.089844 29.785156 76.492188 29.898438 76.839844 30.125 Z M 75.082031 31.417969 C 74.816406 31.703125 74.6875 32.085938 74.6875 32.574219 C 74.6875 33.0625 74.816406 33.449219 75.082031 33.730469 C 75.335938 34.003906 75.675781 34.140625 76.101562 34.140625 C 76.484375 34.152344 76.859375 34 77.121094 33.71875 C 77.390625 33.433594 77.523438 33.050781 77.523438 32.574219 C 77.523438 32.097656 77.390625 31.71875 77.121094 31.429688 C 76.859375 31.148438 76.484375 30.988281 76.101562 31.007812 C 75.675781 31.007812 75.335938 31.144531 75.082031 31.417969 Z M 75.082031 31.417969 "/>
<path style=" stroke:none;fill-rule:nonzero;fill:rgb(94.901961%,94.901961%,94.901961%);fill-opacity:1;" d="M 80.199219 27.769531 C 80.554688 27.496094 81.0625 27.496094 81.417969 27.769531 C 81.566406 27.910156 81.660156 28.105469 81.652344 28.3125 C 81.660156 28.519531 81.566406 28.714844 81.417969 28.847656 C 81.0625 29.128906 80.554688 29.128906 80.199219 28.847656 C 80.042969 28.714844 79.957031 28.519531 79.964844 28.3125 C 79.957031 28.105469 80.042969 27.910156 80.199219 27.769531 Z M 81.484375 29.871094 L 81.484375 35.277344 L 80.117188 35.277344 L 80.117188 29.871094 Z M 81.484375 29.871094 "/>
<path style=" stroke:none;fill-rule:nonzero;fill:rgb(94.901961%,94.901961%,94.901961%);fill-opacity:1;" d="M 90.066406 29.0625 C 90.609375 29.46875 90.992188 30.058594 91.152344 30.726562 L 89.980469 30.726562 C 89.832031 30.351562 89.578125 30.039062 89.242188 29.824219 C 88.878906 29.597656 88.457031 29.484375 88.035156 29.496094 C 87.625 29.484375 87.222656 29.589844 86.875 29.796875 C 86.539062 30.003906 86.257812 30.304688 86.089844 30.667969 C 85.882812 31.074219 85.789062 31.523438 85.796875 31.984375 C 85.777344 32.453125 85.882812 32.921875 86.089844 33.355469 C 86.265625 33.71875 86.554688 34.019531 86.910156 34.21875 C 87.296875 34.433594 87.71875 34.535156 88.148438 34.527344 C 88.691406 34.535156 89.214844 34.339844 89.617188 33.984375 C 90.039062 33.605469 90.300781 33.082031 90.355469 32.519531 L 87.828125 32.519531 L 87.828125 31.691406 L 91.292969 31.691406 L 91.292969 32.761719 C 91.21875 33.257812 91.03125 33.738281 90.75 34.152344 C 90.460938 34.574219 90.074219 34.921875 89.625 35.15625 C 89.140625 35.410156 88.585938 35.539062 88.035156 35.523438 C 87.417969 35.539062 86.800781 35.382812 86.257812 35.070312 C 85.75 34.78125 85.339844 34.347656 85.066406 33.824219 C 84.507812 32.660156 84.507812 31.308594 85.066406 30.144531 C 85.339844 29.628906 85.75 29.195312 86.257812 28.894531 C 86.789062 28.59375 87.40625 28.433594 88.027344 28.453125 C 88.757812 28.425781 89.46875 28.640625 90.066406 29.0625 Z M 90.066406 29.0625 "/>
<path style=" stroke:none;fill-rule:nonzero;fill:rgb(94.901961%,94.901961%,94.901961%);fill-opacity:1;" d="M 94.296875 30.257812 C 94.652344 30.039062 95.054688 29.9375 95.46875 29.945312 L 95.46875 31.167969 L 95.140625 31.167969 C 94.71875 31.148438 94.304688 31.269531 93.960938 31.523438 C 93.671875 31.765625 93.519531 32.160156 93.519531 32.714844 L 93.519531 35.457031 L 92.414062 35.457031 L 92.414062 30.03125 L 93.519531 30.03125 L 93.519531 31.101562 C 93.699219 30.753906 93.960938 30.460938 94.296875 30.257812 Z M 94.296875 30.257812 "/>
<path style=" stroke:none;fill-rule:evenodd;fill:rgb(94.901961%,94.901961%,94.901961%);fill-opacity:1;" d="M 100.15625 30.304688 C 100.570312 30.527344 100.90625 30.855469 101.128906 31.261719 C 101.597656 32.199219 101.597656 33.296875 101.128906 34.226562 C 100.90625 34.640625 100.570312 34.96875 100.15625 35.183594 C 99.277344 35.632812 98.238281 35.632812 97.359375 35.183594 C 96.945312 34.96875 96.609375 34.628906 96.382812 34.21875 C 95.90625 33.289062 95.90625 32.191406 96.382812 31.261719 C 96.609375 30.855469 96.945312 30.519531 97.359375 30.304688 C 98.238281 29.851562 99.277344 29.851562 100.15625 30.304688 Z M 97.964844 31.136719 C 97.714844 31.277344 97.515625 31.484375 97.386719 31.738281 C 97.097656 32.378906 97.097656 33.109375 97.386719 33.746094 C 97.515625 34 97.714844 34.207031 97.964844 34.347656 C 98.460938 34.613281 99.050781 34.613281 99.546875 34.347656 C 99.792969 34.207031 99.996094 34 100.128906 33.746094 C 100.417969 33.109375 100.417969 32.378906 100.128906 31.738281 C 99.996094 31.484375 99.792969 31.277344 99.546875 31.136719 C 99.050781 30.875 98.460938 30.875 97.964844 31.136719 Z M 97.964844 31.136719 "/>
<path style=" stroke:none;fill-rule:nonzero;fill:rgb(94.901961%,94.901961%,94.901961%);fill-opacity:1;" d="M 107.515625 30.03125 L 107.515625 35.464844 L 106.390625 35.464844 L 106.390625 34.28125 C 106.269531 34.667969 106.015625 34.996094 105.679688 35.210938 C 105.324219 35.4375 104.910156 35.550781 104.5 35.539062 C 103.929688 35.570312 103.386719 35.34375 102.992188 34.929688 C 102.617188 34.523438 102.429688 33.945312 102.429688 33.195312 L 102.429688 30.03125 L 103.535156 30.03125 L 103.535156 33.070312 C 103.535156 33.558594 103.660156 33.9375 103.910156 34.207031 C 104.171875 34.480469 104.546875 34.621094 104.921875 34.601562 C 105.324219 34.621094 105.707031 34.460938 105.988281 34.171875 C 106.25 33.882812 106.382812 33.464844 106.382812 32.914062 L 106.382812 30.039062 Z M 107.515625 30.03125 "/>
<path style=" stroke:none;fill-rule:evenodd;fill:rgb(94.901961%,94.901961%,94.901961%);fill-opacity:1;" d="M 113.175781 30.304688 C 113.550781 30.539062 113.851562 30.867188 114.039062 31.261719 C 114.460938 32.207031 114.460938 33.289062 114.039062 34.226562 C 113.851562 34.621094 113.550781 34.957031 113.175781 35.183594 C 112.804688 35.410156 112.363281 35.53125 111.933594 35.523438 C 111.484375 35.53125 111.042969 35.410156 110.679688 35.15625 C 110.339844 34.921875 110.089844 34.582031 109.957031 34.199219 L 109.957031 38.027344 L 108.851562 38.027344 L 108.851562 30.03125 L 109.957031 30.03125 L 109.957031 31.296875 C 110.089844 30.902344 110.339844 30.566406 110.679688 30.332031 C 111.042969 30.085938 111.484375 29.957031 111.933594 29.972656 C 112.363281 29.964844 112.804688 30.078125 113.175781 30.304688 Z M 110.742188 31.175781 C 110.5 31.324219 110.292969 31.542969 110.164062 31.804688 C 109.875 32.40625 109.875 33.101562 110.164062 33.691406 C 110.292969 33.953125 110.5 34.171875 110.742188 34.320312 C 111.003906 34.46875 111.296875 34.546875 111.585938 34.535156 C 112.035156 34.554688 112.464844 34.386719 112.773438 34.058594 C 113.074219 33.738281 113.222656 33.300781 113.222656 32.742188 C 113.253906 32.265625 113.082031 31.796875 112.773438 31.4375 C 112.464844 31.109375 112.035156 30.941406 111.585938 30.960938 C 111.296875 30.949219 111.003906 31.027344 110.742188 31.167969 Z M 110.742188 31.175781 "/>
</g>
</svg>
